0
SECTION
2
HEADER
9
$ACADVER
1
AC1009
9
$INSBASE
10
0.000
20
0.000
30
0.000
9
$EXTMIN
10
7513938.660
20
4691208.600
9
$EXTMAX
10
7513938.660
20
4691208.600
0
ENDSEC
0
SECTION
2
TABLES
0
TABLE
2
LTYPE
70
1
0
LTYPE
2
continuous
70
64
3
Solid line
72
65
73
0
40
0.000
0
ENDTAB
0
TABLE
2
LAYER
70
1
0
LAYER
2
Parcela
70
64
62
7
6
continuous
0
ENDTAB
0
TABLE
2
STYLE
70
1
0
STYLE
2
STANDARD
70
0
40
0
41
40
50
50
71
0
42
1
3
ARIAL.TTF
4

0
ENDTAB
0
TABLE
2
VIEW
70
0
0
ENDTAB
0
ENDSEC
0
SECTION
2
BLOCKS
0
ENDSEC
0
SECTION
2
ENTITIES
0
POLYLINE
66
1
8
Parcela Baze
70
0
10
7509358.821
20
4726934.252
0
VERTEX
8
Parcela Baze
10
7509358.821
20
4726934.252
0
VERTEX
8
Parcela Baze
10
7509334.683
20
4726961.662
0
VERTEX
8
Parcela Baze
10
7509335.046
20
4726961.623
0
VERTEX
8
Parcela Baze
10
7509352.308
20
4726961.919
0
VERTEX
8
Parcela Baze
10
7509379.518
20
4726963.863
0
VERTEX
8
Parcela Baze
10
7509403.806
20
4726962.508
0
VERTEX
8
Parcela Baze
10
7509421.219
20
4726961.052
0
VERTEX
8
Parcela Baze
10
7509437.175
20
4726960.361
0
VERTEX
8
Parcela Baze
10
7509437.803
20
4726956.466
0
VERTEX
8
Parcela Baze
10
7509457.639
20
4726959.843
0
VERTEX
8
Parcela Baze
10
7509477.894
20
4726964.262
0
VERTEX
8
Parcela Baze
10
7509497.237
20
4726973.506
0
VERTEX
8
Parcela Baze
10
7509513.418
20
4726987.493
0
VERTEX
8
Parcela Baze
10
7509525.412
20
4727005.100
0
VERTEX
8
Parcela Baze
10
7509531.873
20
4727021.879
0
VERTEX
8
Parcela Baze
10
7509538.820
20
4727012.208
0
VERTEX
8
Parcela Baze
10
7509543.552
20
4726994.945
0
VERTEX
8
Parcela Baze
10
7509515.840
20
4726966.599
0
VERTEX
8
Parcela Baze
10
7509483.172
20
4726948.550
0
VERTEX
8
Parcela Baze
10
7509445.418
20
4726936.603
0
VERTEX
8
Parcela Baze
10
7509407.666
20
4726941.434
0
VERTEX
8
Parcela Baze
10
7509390.759
20
4726933.680
0
VERTEX
8
Parcela Baze
10
7509360.506
20
4726925.037
0
VERTEX
8
Parcela Baze
10
7509388.726
20
4726943.341
0
VERTEX
8
Parcela Baze
10
7509378.938
20
4726944.866
0
VERTEX
8
Parcela Baze
10
7509366.862
20
4726941.435
0
VERTEX
8
Parcela Baze
10
7509358.821
20
4726934.252
0
SEQEND
0
TEXT
8
Nr Parceles Baze
10
7509427.030
20
4726949.850
40
0.800000
1
01667-7
0
TEXT
8
Nr e Pikave Gjeodezike te Parceles Baze
10
7509378.938
20
4726944.866
40
0.800000
1
2655-3081
0
POINT
8
Pikat
10
7509378.938
20
4726944.866
0
TEXT
8
Nr e Pikave Gjeodezike te Parceles Baze
10
7509421.219
20
4726961.052
40
0.800000
1
2655-21494
0
POINT
8
Pikat
10
7509421.219
20
4726961.052
0
TEXT
8
Nr e Pikave Gjeodezike te Parceles Baze
10
7509379.518
20
4726963.863
40
0.800000
1
2655-21496
0
POINT
8
Pikat
10
7509379.518
20
4726963.863
0
TEXT
8
Nr e Pikave Gjeodezike te Parceles Baze
10
7509366.862
20
4726941.435
40
0.800000
1
2655-3080
0
POINT
8
Pikat
10
7509366.862
20
4726941.435
0
TEXT
8
Nr e Pikave Gjeodezike te Parceles Baze
10
7509388.726
20
4726943.341
40
0.800000
1
2655-3082
0
POINT
8
Pikat
10
7509388.726
20
4726943.341
0
TEXT
8
Nr e Pikave Gjeodezike te Parceles Baze
10
7509437.175
20
4726960.361
40
0.800000
1
2655-21493
0
POINT
8
Pikat
10
7509437.175
20
4726960.361
0
TEXT
8
Nr e Pikave Gjeodezike te Parceles Baze
10
7509403.806
20
4726962.508
40
0.800000
1
2655-21495
0
POINT
8
Pikat
10
7509403.806
20
4726962.508
0
TEXT
8
Nr e Pikave Gjeodezike te Parceles Baze
10
7509483.172
20
4726948.550
40
0.800000
1
2655-3087
0
POINT
8
Pikat
10
7509483.172
20
4726948.550
0
TEXT
8
Nr e Pikave Gjeodezike te Parceles Baze
10
7509515.840
20
4726966.599
40
0.800000
1
2655-3088
0
POINT
8
Pikat
10
7509515.840
20
4726966.599
0
TEXT
8
Nr e Pikave Gjeodezike te Parceles Baze
10
7509497.237
20
4726973.506
40
0.800000
1
2655-21503
0
POINT
8
Pikat
10
7509497.237
20
4726973.506
0
TEXT
8
Nr e Pikave Gjeodezike te Parceles Baze
10
7509477.894
20
4726964.262
40
0.800000
1
2655-21504
0
POINT
8
Pikat
10
7509477.894
20
4726964.262
0
TEXT
8
Nr e Pikave Gjeodezike te Parceles Baze
10
7509360.506
20
4726925.037
40
0.800000
1
2655-3083
0
POINT
8
Pikat
10
7509360.506
20
4726925.037
0
TEXT
8
Nr e Pikave Gjeodezike te Parceles Baze
10
7509407.666
20
4726941.434
40
0.800000
1
2655-3085
0
POINT
8
Pikat
10
7509407.666
20
4726941.434
0
TEXT
8
Nr e Pikave Gjeodezike te Parceles Baze
10
7509543.552
20
4726994.945
40
0.800000
1
2655-3089
0
POINT
8
Pikat
10
7509543.552
20
4726994.945
0
TEXT
8
Nr e Pikave Gjeodezike te Parceles Baze
10
7509513.418
20
4726987.493
40
0.800000
1
2655-21502
0
POINT
8
Pikat
10
7509513.418
20
4726987.493
0
TEXT
8
Nr e Pikave Gjeodezike te Parceles Baze
10
7509457.639
20
4726959.843
40
0.800000
1
2655-21505
0
POINT
8
Pikat
10
7509457.639
20
4726959.843
0
TEXT
8
Nr e Pikave Gjeodezike te Parceles Baze
10
7509445.418
20
4726936.603
40
0.800000
1
2655-3086
0
POINT
8
Pikat
10
7509445.418
20
4726936.603
0
TEXT
8
Nr e Pikave Gjeodezike te Parceles Baze
10
7509335.046
20
4726961.623
40
0.800000
1
2655-21498
0
POINT
8
Pikat
10
7509335.046
20
4726961.623
0
TEXT
8
Nr e Pikave Gjeodezike te Parceles Baze
10
7509334.683
20
4726961.662
40
0.800000
1
2655-21589
0
POINT
8
Pikat
10
7509334.683
20
4726961.662
0
TEXT
8
Nr e Pikave Gjeodezike te Parceles Baze
10
7509352.308
20
4726961.919
40
0.800000
1
2655-21497
0
POINT
8
Pikat
10
7509352.308
20
4726961.919
0
TEXT
8
Nr e Pikave Gjeodezike te Parceles Baze
10
7509538.820
20
4727012.208
40
0.800000
1
2655-21499
0
POINT
8
Pikat
10
7509538.820
20
4727012.208
0
TEXT
8
Nr e Pikave Gjeodezike te Parceles Baze
10
7509525.412
20
4727005.100
40
0.800000
1
2655-21501
0
POINT
8
Pikat
10
7509525.412
20
4727005.100
0
TEXT
8
Nr e Pikave Gjeodezike te Parceles Baze
10
7509437.803
20
4726956.466
40
0.800000
1
2655-21506
0
POINT
8
Pikat
10
7509437.803
20
4726956.466
0
TEXT
8
Nr e Pikave Gjeodezike te Parceles Baze
10
7509390.759
20
4726933.680
40
0.800000
1
2655-3084
0
POINT
8
Pikat
10
7509390.759
20
4726933.680
0
TEXT
8
Nr e Pikave Gjeodezike te Parceles Baze
10
7509531.873
20
4727021.879
40
0.800000
1
2655-21500
0
POINT
8
Pikat
10
7509531.873
20
4727021.879
0
TEXT
8
Nr e Pikave Gjeodezike te Parceles Baze
10
7509358.821
20
4726934.252
40
0.800000
1
2655-21588
0
POINT
8
Pikat
10
7509358.821
20
4726934.252
0
ENDSEC
0
EOF
