0
SECTION
2
HEADER
9
$ACADVER
1
AC1009
9
$INSBASE
10
0.000
20
0.000
30
0.000
9
$EXTMIN
10
7513938.660
20
4691208.600
9
$EXTMAX
10
7513938.660
20
4691208.600
0
ENDSEC
0
SECTION
2
TABLES
0
TABLE
2
LTYPE
70
1
0
LTYPE
2
continuous
70
64
3
Solid line
72
65
73
0
40
0.000
0
ENDTAB
0
TABLE
2
LAYER
70
1
0
LAYER
2
Parcela
70
64
62
7
6
continuous
0
ENDTAB
0
TABLE
2
STYLE
70
1
0
STYLE
2
STANDARD
70
0
40
0
41
40
50
50
71
0
42
1
3
ARIAL.TTF
4

0
ENDTAB
0
TABLE
2
VIEW
70
0
0
ENDTAB
0
ENDSEC
0
SECTION
2
BLOCKS
0
ENDSEC
0
SECTION
2
ENTITIES
0
POLYLINE
66
1
8
Parcela Baze
70
0
10
7509334.683
20
4726961.662
0
VERTEX
8
Parcela Baze
10
7509334.683
20
4726961.662
0
VERTEX
8
Parcela Baze
10
7509323.626
20
4726974.218
0
VERTEX
8
Parcela Baze
10
7509429.575
20
4727017.146
0
VERTEX
8
Parcela Baze
10
7509521.697
20
4727036.044
0
VERTEX
8
Parcela Baze
10
7509522.161
20
4727035.397
0
VERTEX
8
Parcela Baze
10
7509520.144
20
4727028.834
0
VERTEX
8
Parcela Baze
10
7509513.469
20
4727011.060
0
VERTEX
8
Parcela Baze
10
7509503.702
20
4726996.051
0
VERTEX
8
Parcela Baze
10
7509490.220
20
4726984.132
0
VERTEX
8
Parcela Baze
10
7509455.572
20
4726972.112
0
VERTEX
8
Parcela Baze
10
7509435.773
20
4726969.001
0
VERTEX
8
Parcela Baze
10
7509437.175
20
4726960.361
0
VERTEX
8
Parcela Baze
10
7509421.219
20
4726961.052
0
VERTEX
8
Parcela Baze
10
7509403.806
20
4726962.508
0
VERTEX
8
Parcela Baze
10
7509379.518
20
4726963.863
0
VERTEX
8
Parcela Baze
10
7509352.308
20
4726961.919
0
VERTEX
8
Parcela Baze
10
7509335.046
20
4726961.623
0
VERTEX
8
Parcela Baze
10
7509334.683
20
4726961.662
0
SEQEND
0
TEXT
8
Nr Parceles Baze
10
7509431.972
20
4726992.584
40
0.800000
1
01667-5
0
TEXT
8
Nr e Pikave Gjeodezike te Parceles Baze
10
7509490.220
20
4726984.132
40
0.800000
1
2655-21490
0
POINT
8
Pikat
10
7509490.220
20
4726984.132
0
TEXT
8
Nr e Pikave Gjeodezike te Parceles Baze
10
7509435.773
20
4726969.001
40
0.800000
1
2655-21492
0
POINT
8
Pikat
10
7509435.773
20
4726969.001
0
TEXT
8
Nr e Pikave Gjeodezike te Parceles Baze
10
7509437.175
20
4726960.361
40
0.800000
1
2655-21493
0
POINT
8
Pikat
10
7509437.175
20
4726960.361
0
TEXT
8
Nr e Pikave Gjeodezike te Parceles Baze
10
7509403.806
20
4726962.508
40
0.800000
1
2655-21495
0
POINT
8
Pikat
10
7509403.806
20
4726962.508
0
TEXT
8
Nr e Pikave Gjeodezike te Parceles Baze
10
7509521.697
20
4727036.044
40
0.800000
1
2655-21485
0
POINT
8
Pikat
10
7509521.697
20
4727036.044
0
TEXT
8
Nr e Pikave Gjeodezike te Parceles Baze
10
7509522.161
20
4727035.397
40
0.800000
1
2655-21486
0
POINT
8
Pikat
10
7509522.161
20
4727035.397
0
TEXT
8
Nr e Pikave Gjeodezike te Parceles Baze
10
7509421.219
20
4726961.052
40
0.800000
1
2655-21494
0
POINT
8
Pikat
10
7509421.219
20
4726961.052
0
TEXT
8
Nr e Pikave Gjeodezike te Parceles Baze
10
7509379.518
20
4726963.863
40
0.800000
1
2655-21496
0
POINT
8
Pikat
10
7509379.518
20
4726963.863
0
TEXT
8
Nr e Pikave Gjeodezike te Parceles Baze
10
7509520.144
20
4727028.834
40
0.800000
1
2655-21487
0
POINT
8
Pikat
10
7509520.144
20
4727028.834
0
TEXT
8
Nr e Pikave Gjeodezike te Parceles Baze
10
7509513.469
20
4727011.060
40
0.800000
1
2655-21488
0
POINT
8
Pikat
10
7509513.469
20
4727011.060
0
TEXT
8
Nr e Pikave Gjeodezike te Parceles Baze
10
7509352.308
20
4726961.919
40
0.800000
1
2655-21497
0
POINT
8
Pikat
10
7509352.308
20
4726961.919
0
TEXT
8
Nr e Pikave Gjeodezike te Parceles Baze
10
7509323.626
20
4726974.218
40
0.800000
1
2655-21590
0
POINT
8
Pikat
10
7509323.626
20
4726974.218
0
TEXT
8
Nr e Pikave Gjeodezike te Parceles Baze
10
7509429.575
20
4727017.146
40
0.800000
1
2655-21484
0
POINT
8
Pikat
10
7509429.575
20
4727017.146
0
TEXT
8
Nr e Pikave Gjeodezike te Parceles Baze
10
7509455.572
20
4726972.112
40
0.800000
1
2655-21491
0
POINT
8
Pikat
10
7509455.572
20
4726972.112
0
TEXT
8
Nr e Pikave Gjeodezike te Parceles Baze
10
7509335.046
20
4726961.623
40
0.800000
1
2655-21498
0
POINT
8
Pikat
10
7509335.046
20
4726961.623
0
TEXT
8
Nr e Pikave Gjeodezike te Parceles Baze
10
7509334.683
20
4726961.662
40
0.800000
1
2655-21589
0
POINT
8
Pikat
10
7509334.683
20
4726961.662
0
TEXT
8
Nr e Pikave Gjeodezike te Parceles Baze
10
7509503.702
20
4726996.051
40
0.800000
1
2655-21489
0
POINT
8
Pikat
10
7509503.702
20
4726996.051
0
ENDSEC
0
EOF
