0
SECTION
2
HEADER
9
$ACADVER
1
AC1009
9
$INSBASE
10
0.000
20
0.000
30
0.000
9
$EXTMIN
10
7513938.660
20
4691208.600
9
$EXTMAX
10
7513938.660
20
4691208.600
0
ENDSEC
0
SECTION
2
TABLES
0
TABLE
2
LTYPE
70
1
0
LTYPE
2
continuous
70
64
3
Solid line
72
65
73
0
40
0.000
0
ENDTAB
0
TABLE
2
LAYER
70
1
0
LAYER
2
Parcela
70
64
62
7
6
continuous
0
ENDTAB
0
TABLE
2
STYLE
70
1
0
STYLE
2
STANDARD
70
0
40
0
41
40
50
50
71
0
42
1
3
ARIAL.TTF
4

0
ENDTAB
0
TABLE
2
VIEW
70
0
0
ENDTAB
0
ENDSEC
0
SECTION
2
BLOCKS
0
ENDSEC
0
SECTION
2
ENTITIES
0
POLYLINE
66
1
8
Parcela Baze
70
0
10
7509548.270
20
4726963.320
0
VERTEX
8
Parcela Baze
10
7509548.270
20
4726963.320
0
VERTEX
8
Parcela Baze
10
7509537.870
20
4726923.740
0
VERTEX
8
Parcela Baze
10
7509524.140
20
4726871.490
0
VERTEX
8
Parcela Baze
10
7509522.725
20
4726872.005
0
VERTEX
8
Parcela Baze
10
7509494.787
20
4726882.848
0
VERTEX
8
Parcela Baze
10
7509485.894
20
4726886.692
0
VERTEX
8
Parcela Baze
10
7509504.943
20
4726930.177
0
VERTEX
8
Parcela Baze
10
7509514.754
20
4726939.070
0
VERTEX
8
Parcela Baze
10
7509531.162
20
4726950.084
0
VERTEX
8
Parcela Baze
10
7509547.646
20
4726963.589
0
VERTEX
8
Parcela Baze
10
7509548.270
20
4726963.320
0
SEQEND
0
TEXT
8
Nr Parceles Baze
10
7509517.876
20
4726912.139
40
0.800000
1
01695-4
0
TEXT
8
Nr e Pikave Gjeodezike te Parceles Baze
10
7509504.943
20
4726930.177
40
0.800000
1
2655-3281
0
POINT
8
Pikat
10
7509504.943
20
4726930.177
0
TEXT
8
Nr e Pikave Gjeodezike te Parceles Baze
10
7509547.646
20
4726963.589
40
0.800000
1
2655-2854
0
POINT
8
Pikat
10
7509547.646
20
4726963.589
0
TEXT
8
Nr e Pikave Gjeodezike te Parceles Baze
10
7509494.787
20
4726882.848
40
0.800000
1
2655-3289
0
POINT
8
Pikat
10
7509494.787
20
4726882.848
0
TEXT
8
Nr e Pikave Gjeodezike te Parceles Baze
10
7509522.725
20
4726872.005
40
0.800000
1
2655-3290
0
POINT
8
Pikat
10
7509522.725
20
4726872.005
0
TEXT
8
Nr e Pikave Gjeodezike te Parceles Baze
10
7509537.870
20
4726923.740
40
0.800000
1
2655-21583
0
POINT
8
Pikat
10
7509537.870
20
4726923.740
0
TEXT
8
Nr e Pikave Gjeodezike te Parceles Baze
10
7509531.162
20
4726950.084
40
0.800000
1
2655-3279
0
POINT
8
Pikat
10
7509531.162
20
4726950.084
0
TEXT
8
Nr e Pikave Gjeodezike te Parceles Baze
10
7509548.270
20
4726963.320
40
0.800000
1
2655-21582
0
POINT
8
Pikat
10
7509548.270
20
4726963.320
0
TEXT
8
Nr e Pikave Gjeodezike te Parceles Baze
10
7509524.140
20
4726871.490
40
0.800000
1
2655-21584
0
POINT
8
Pikat
10
7509524.140
20
4726871.490
0
TEXT
8
Nr e Pikave Gjeodezike te Parceles Baze
10
7509514.754
20
4726939.070
40
0.800000
1
2655-3280
0
POINT
8
Pikat
10
7509514.754
20
4726939.070
0
TEXT
8
Nr e Pikave Gjeodezike te Parceles Baze
10
7509485.894
20
4726886.692
40
0.800000
1
2655-3282
0
POINT
8
Pikat
10
7509485.894
20
4726886.692
0
ENDSEC
0
EOF
